<svg width="24" height="25" viewBox="0 0 24 25" fill="none" xmlns="http://www.w3.org/2000/svg">
<path d="M17 2H7C4.23858 2 2 4.23858 2 7V17C2 19.7614 4.23858 22 7 22H17C19.7614 22 22 19.7614 22 17V7C22 4.23858 19.7614 2 17 2Z" stroke="white" stroke-width="2" stroke-linecap="round" stroke-linejoin="round"/>
<path d="M16 11.4948C16.1234 12.327 15.9812 13.177 15.5937 13.9238C15.2062 14.6706 14.5931 15.2762 13.8416 15.6545C13.0901 16.0327 12.2384 16.1644 11.4077 16.0307C10.5771 15.8971 9.80971 15.5049 9.21479 14.91C8.61987 14.315 8.22768 13.5477 8.09402 12.717C7.96035 11.8863 8.09202 11.0347 8.47028 10.2832C8.84854 9.53167 9.45414 8.91856 10.2009 8.53106C10.9477 8.14356 11.7977 8.0014 12.63 8.12482C13.4789 8.2507 14.2648 8.64628 14.8716 9.25312C15.4785 9.85997 15.8741 10.6459 16 11.4948Z" stroke="white" stroke-width="2" stroke-linecap="round" stroke-linejoin="round"/>
<path d="M17.5 6.625H17.51" stroke="white" stroke-width="2" stroke-linecap="round" stroke-linejoin="round"/>
</svg>
