<svg width="32" height="31" viewBox="0 0 32 31" fill="none" xmlns="http://www.w3.org/2000/svg">
<g filter="url(#filter0_d_2_286)">
<path d="M27 3.1248C26.0424 3.80028 24.9821 4.31691 23.86 4.65481C23.2577 3.96232 22.4573 3.4715 21.567 3.24873C20.6767 3.02597 19.7395 3.082 18.8821 3.40926C18.0247 3.73652 17.2884 4.31921 16.773 5.07852C16.2575 5.83784 15.9877 6.73714 16 7.6548V8.65479C14.2426 8.70036 12.5013 8.31062 10.931 7.52025C9.36074 6.72988 8.01032 5.56344 7 4.1248C7 4.1248 3 13.1248 12 17.1248C9.94053 18.5228 7.48716 19.2237 5 19.1248C14 24.1248 25 19.1248 25 7.62479C25 7.34479 24.97 7.06481 24.92 6.79481C25.9406 5.7883 26.6608 4.51752 27 3.1248Z" stroke="white" stroke-width="2" stroke-linecap="round" stroke-linejoin="round"/>
</g>
<defs>
<filter id="filter0_d_2_286" x="0" y="0.125" width="32" height="32" filterUnits="userSpaceOnUse" color-interpolation-filters="sRGB">
<feFlood flood-opacity="0" result="BackgroundImageFix"/>
<feColorMatrix in="SourceAlpha" type="matrix" values="0 0 0 0 0 0 0 0 0 0 0 0 0 0 0 0 0 0 127 0" result="hardAlpha"/>
<feOffset dy="4"/>
<feGaussianBlur stdDeviation="2"/>
<feComposite in2="hardAlpha" operator="out"/>
<feColorMatrix type="matrix" values="0 0 0 0 0 0 0 0 0 0 0 0 0 0 0 0 0 0 0.25 0"/>
<feBlend mode="normal" in2="BackgroundImageFix" result="effect1_dropShadow_2_286"/>
<feBlend mode="normal" in="SourceGraphic" in2="effect1_dropShadow_2_286" result="shape"/>
</filter>
</defs>
</svg>
