<svg width="40" height="40" viewBox="0 0 40 40" fill="none" xmlns="http://www.w3.org/2000/svg">
<g clip-path="url(#clip0_2_295)" filter="url(#filter0_dd_2_295)">
<path fill-rule="evenodd" clip-rule="evenodd" d="M35.3672 27.7357C35.0561 28.5258 34.3384 29.6383 33.3205 30.4219C32.7329 30.8745 32.0313 31.3072 31.0676 31.5927C30.0403 31.8971 28.7749 32 27.2 32H12.8001C11.2253 32 9.95999 31.8971 8.93258 31.5927C7.96888 31.3072 7.2674 30.8745 6.67962 30.4219C5.66187 29.6382 4.94399 28.5258 4.63293 27.7357C4.00636 26.1438 4 24.3376 4 23.2V8.79997C4 7.66243 4.00636 5.85622 4.63293 4.26429C4.94399 3.47418 5.66174 2.36169 6.67962 1.57806C7.26727 1.12546 7.96888 0.692826 8.93258 0.407328C9.95986 0.102881 11.2252 0 12.8001 0H27.2002C28.7749 0 30.0403 0.102881 31.0677 0.407328C32.0314 0.692826 32.7329 1.12559 33.3206 1.57806C34.3384 2.36182 35.0563 3.47418 35.3673 4.26429C35.9939 5.85622 36.0003 7.66243 36.0003 8.79997V23.2C36.0001 24.3375 35.9938 26.1437 35.3672 27.7357Z" fill="url(#paint0_linear_2_295)"/>
<path d="M22.3209 18.3932C21.8407 17.8866 20.9973 17.5618 20.0016 17.5618C19.0059 17.5618 18.1625 17.8866 17.6823 18.3932C17.4318 18.6576 17.2993 18.9286 17.2575 19.3147C17.1767 20.0624 17.2221 20.7061 17.3097 21.7353C17.3931 22.716 17.5516 24.0239 17.7583 25.3559C17.9055 26.3038 18.025 26.8154 18.1339 27.1818C18.3104 27.7755 18.97 28.2948 20.0016 28.2948C21.0331 28.2948 21.6928 27.7754 21.8693 27.1818C21.9781 26.8154 22.0977 26.3038 22.2448 25.3559C22.4516 24.0239 22.61 22.716 22.6935 21.7353C22.7811 20.706 22.8265 20.0622 22.7456 19.3147C22.7039 18.9288 22.5714 18.6576 22.3209 18.3932ZM17.3852 13.8821C17.3852 15.3284 18.5577 16.5009 20.0041 16.5009C21.4505 16.5009 22.623 15.3284 22.623 13.8821C22.623 12.4357 21.4505 11.2632 20.0041 11.2632C18.5577 11.2632 17.3852 12.4357 17.3852 13.8821ZM19.9716 3.54692C13.8467 3.56435 8.8279 8.53329 8.7521 14.6579C8.69055 19.6192 11.8576 23.8631 16.28 25.4187C16.3873 25.4564 16.4963 25.3673 16.4794 25.2548C16.4214 24.8695 16.3667 24.4824 16.3165 24.1018C16.2987 23.9673 16.213 23.8513 16.0887 23.797C12.5933 22.2699 10.1525 18.7643 10.1917 14.7036C10.2431 9.37465 14.5946 5.03024 19.9236 4.98713C25.3714 4.94313 29.8174 9.36207 29.8174 14.7999C29.8174 18.8199 27.3873 22.2825 23.9191 23.7974C23.7949 23.8517 23.7097 23.968 23.692 24.1025C23.6418 24.4829 23.5871 24.8699 23.5292 25.2548C23.5122 25.3673 23.6212 25.4564 23.7285 25.4188C28.1086 23.8781 31.2573 19.7002 31.2573 14.8C31.257 8.58403 26.1914 3.52912 19.9716 3.54692ZM19.7683 8.70942C23.2404 8.575 26.1079 11.3606 26.1079 14.8033C26.1079 16.5542 25.3661 18.135 24.1805 19.2482C24.0799 19.3426 24.0258 19.4766 24.0336 19.6143C24.0572 20.0331 24.0486 20.4401 24.0207 20.8997C24.0132 21.0221 24.1506 21.1003 24.2519 21.0313C26.2401 19.6726 27.5478 17.388 27.5478 14.8033C27.5478 10.5477 24.0031 7.10427 19.7112 7.27061C15.7226 7.42525 12.5226 10.7138 12.4715 14.7052C12.4379 17.3302 13.7536 19.6558 15.7674 21.0315C15.8685 21.1006 16.0054 21.0223 15.9979 20.8999C15.9699 20.4401 15.9614 20.0331 15.9849 19.6143C15.9927 19.4767 15.9388 19.3427 15.8384 19.2485C14.6158 18.1006 13.865 16.4557 13.9128 14.6397C13.997 11.4439 16.5736 8.83316 19.7683 8.70942Z" fill="white"/>
</g>
<defs>
<filter id="filter0_dd_2_295" x="0" y="0" width="40" height="40" filterUnits="userSpaceOnUse" color-interpolation-filters="sRGB">
<feFlood flood-opacity="0" result="BackgroundImageFix"/>
<feColorMatrix in="SourceAlpha" type="matrix" values="0 0 0 0 0 0 0 0 0 0 0 0 0 0 0 0 0 0 127 0" result="hardAlpha"/>
<feOffset dy="4"/>
<feGaussianBlur stdDeviation="2"/>
<feComposite in2="hardAlpha" operator="out"/>
<feColorMatrix type="matrix" values="0 0 0 0 0 0 0 0 0 0 0 0 0 0 0 0 0 0 0.25 0"/>
<feBlend mode="normal" in2="BackgroundImageFix" result="effect1_dropShadow_2_295"/>
<feColorMatrix in="SourceAlpha" type="matrix" values="0 0 0 0 0 0 0 0 0 0 0 0 0 0 0 0 0 0 127 0" result="hardAlpha"/>
<feOffset dy="4"/>
<feGaussianBlur stdDeviation="2"/>
<feComposite in2="hardAlpha" operator="out"/>
<feColorMatrix type="matrix" values="0 0 0 0 0 0 0 0 0 0 0 0 0 0 0 0 0 0 0.25 0"/>
<feBlend mode="normal" in2="effect1_dropShadow_2_295" result="effect2_dropShadow_2_295"/>
<feBlend mode="normal" in="SourceGraphic" in2="effect2_dropShadow_2_295" result="shape"/>
</filter>
<linearGradient id="paint0_linear_2_295" x1="20.0001" y1="0" x2="20.0001" y2="32" gradientUnits="userSpaceOnUse">
<stop stop-color="#F452FF"/>
<stop offset="1" stop-color="#832BC1"/>
</linearGradient>
<clipPath id="clip0_2_295">
<rect width="32" height="32" fill="white" transform="translate(4)"/>
</clipPath>
</defs>
</svg>
